# xmcd CD database file
#
# Track frame offsets:
#	150
#	17791
#	32734
#	44421
#	61857
#	78711
#	92280
#	108304
#	127543
#	142589
#	172282
#	186683
#	199257
#	213187
#	230482
#	246924
#	267778
#	280921
#
# Disc length: 3960 seconds
#
# Revision: 2
# Processed by: cddbd v1.5.2PL0 Copyright (c) Steve Scherf et al.
# Submitted via: CDex 1.94
#
DISCID=fa0f7612
DTITLE=Various Artist - Stax - Chartbusters # 1
DYEAR=1900
DGENRE=Blues
TTITLE0=Albert King - That's What The Blues Is All About
TTITLE1=Isaac Hayes - Theme From Shaft
TTITLE2=Jean Knight - Mr. Big Stuf
TTITLE3=Mel and Tim - Starting All Over Again
TTITLE4=The Mad Lads - Cry Baby
TTITLE5=The Soul Children - The Sweeter He Is
TTITLE6=The Staple Singers - Respect Yourself
TTITLE7=Little Milton - Hard Luck Blues
TTITLE8=Rufus Thomas - The Breakdown
TTITLE9=The Bar Kays - Do You See What A See
TTITLE10=The Dramatics - Get Up And Get Down
TTITLE11=Carla Thomas - I Play For Keeps
TTITLE12=Booker T And The MG's - Born Under A Bad Sign
TTITLE13=Johnny Taylor - Standing In For Jody
TTITLE14=The Temprees - Your Love (Is all I Need)
TTITLE15=Isaac Hayes - Joy
TTITLE16=The Staple Singers - We'll Get Over
TTITLE17=Johnny Taylor - Part Time Love
EXTD=
EXTT0=
EXTT1=
EXTT2=
EXTT3=
EXTT4=
EXTT5=
EXTT6=
EXTT7=
EXTT8=
EXTT9=
EXTT10=
EXTT11=
EXTT12=
EXTT13=
EXTT14=
EXTT15=
EXTT16=
EXTT17=
PLAYORDER=
